# xmcd CD database file
#
# Track frame offsets:
#	150
#	4412
#	43641
#	53763
#	65492
#	129259
#	138779
#	157167
#	169033
#	185649
#
# Disc length: 3056 seconds
#
# Revision: 1
# Processed by: cddbd v1.5.2PL0 Copyright (c) Steve Scherf et al.
# Submitted via: CDex 1.51
#
DISCID=860bee0a
DTITLE=Diana Cooper - Meditationen für ein neues Zeitalter
DYEAR=1900
DGENRE=New Age
TTITLE0=Heilende Einhorn-Energie
TTITLE1=Heilende Einhorn-Energie
TTITLE2=Heilende Einhorn-Energie
TTITLE3=Heilende Einhorn-Energie
TTITLE4=Heilende Einhorn-Energie
TTITLE5=Heilende Einhorn-Energie
TTITLE6=Heilende Einhorn-Energie
TTITLE7=Heilende Einhorn-Energie
TTITLE8=Heilende Einhorn-Energie
TTITLE9=Heilende Einhorn-Energie
EXTD=
EXTT0=
EXTT1=
EXTT2=
EXTT3=
EXTT4=
EXTT5=
EXTT6=
EXTT7=
EXTT8=
EXTT9=
PLAYORDER=
